Coordinates
version=1
nRows=38
nColumns=12
inDegrees=yes

Units are S.I. units (second, meters, Newtons, ...)
Angles are in degrees

endheader
time	SC_y	SC_z	SC_x	AC_y	AC_z	AC_x	GH_y	GH_z	GH_yy	EL_x	PS_y
       0.0              -44.73          32.13          16.36          63.23         -10.69          1.003         -53.81           82.3          178.6          37.46          157.9
    0.0293              -44.73          32.13          16.36          63.23         -10.69            1.0         -53.78          82.29          178.6          37.47          157.9
    0.0586              -44.73          32.13          16.36          63.23         -10.69         0.9976         -53.76          82.27          178.5          37.48          157.9
    0.0879              -44.72          32.13          16.37          63.23         -10.69         0.9945         -53.74          82.26          178.5          37.49          157.8
    0.1172              -44.72          32.13          16.37          63.23         -10.68         0.9912         -53.71          82.24          178.5           37.5          157.8
    0.1465              -44.71          32.13          16.37          63.23         -10.68         0.9877         -53.68          82.22          178.5          37.52          157.8
    0.1758              -44.71          32.13          16.37          63.23         -10.68          0.984         -53.65           82.2          178.5          37.53          157.8
    0.2051               -44.7          32.13          16.37          63.23         -10.68           0.98         -53.61          82.18          178.5          37.55          157.8
    0.2344               -44.7          32.12          16.38          63.24         -10.67         0.9757         -53.58          82.16          178.5          37.56          157.8
    0.2637              -44.69          32.12          16.38          63.24         -10.67         0.9711         -53.54          82.14          178.5          37.58          157.8
     0.293              -44.69          32.12          16.38          63.24         -10.67         0.9662          -53.5          82.11          178.5           37.6          157.8
    0.3223              -44.68          32.12          16.38          63.24         -10.66         0.9609         -53.46          82.08          178.5          37.62          157.7
    0.3516              -44.67          32.12          16.39          63.24         -10.66         0.9552         -53.41          82.05          178.5          37.64          157.7
    0.3809              -44.67          32.12          16.39          63.24         -10.65          0.949         -53.36          82.02          178.5          37.66          157.7
    0.4102              -44.66          32.12          16.39          63.24         -10.65         0.9423          -53.3          81.99          178.5          37.69          157.7
    0.4395              -44.65          32.11           16.4          63.24         -10.64         0.9351         -53.24          81.95          178.5          37.71          157.7
    0.4688              -44.64          32.11           16.4          63.24         -10.64         0.9272         -53.18          81.91          178.4          37.74          157.6
    0.4981              -44.63          32.11          16.41          63.24         -10.63         0.9186          -53.1          81.86          178.4          37.77          157.6
    0.5274              -44.62          32.11          16.41          63.24         -10.63         0.9092         -53.03          81.81          178.4          37.81          157.6
    0.5567              -44.61           32.1          16.42          63.25         -10.62          0.899         -52.94          81.76          178.4          37.85          157.6
     0.586              -44.59           32.1          16.42          63.25         -10.61         0.8877         -52.85           81.7          178.4          37.89          157.5
    0.6153              -44.58           32.1          16.43          63.25          -10.6         0.8753         -52.74          81.64          178.4          37.93          157.5
    0.6446              -44.56          32.09          16.44          63.25          -10.6         0.8616         -52.63          81.57          178.3          37.98          157.4
    0.6739              -44.55          32.09          16.44          63.25         -10.59         0.8464          -52.5          81.49          178.3          38.04          157.4
    0.7032              -44.53          32.08          16.45          63.26         -10.57         0.8296         -52.36           81.4          178.3           38.1          157.3
    0.7325               -44.5          32.08          16.46          63.26         -10.56         0.8107         -52.21          81.31          178.3          38.17          157.3
    0.7618              -44.48          32.07          16.47          63.26         -10.55         0.7896         -52.03           81.2          178.2          38.25          157.2
    0.7911              -44.45          32.07          16.49          63.27         -10.53         0.7659         -51.83          81.07          178.2          38.34          157.2
    0.8204              -44.42          32.06           16.5          63.27         -10.51         0.7391         -51.61          80.94          178.2          38.44          157.1
    0.8497              -44.38          32.05          16.52          63.27         -10.49         0.7087         -51.36          80.78          178.1          38.55          157.0
     0.879              -44.34          32.04          16.54          63.28         -10.47         0.6739         -51.07           80.6          178.1          38.68          156.9
    0.9083              -44.29          32.03          16.56          63.28         -10.44         0.6341         -50.74          80.39          178.0          38.82          156.8
    0.9376              -44.24          32.02          16.58          63.29         -10.41         0.5881         -50.36          80.15          177.9          38.99          156.6
    0.9669              -44.18           32.0          16.61           63.3         -10.37         0.5346         -49.91          79.88          177.8          39.19          156.5
    0.9962               -44.1          31.99          16.64          63.31         -10.33          0.472         -49.39          79.55          177.8          39.42          156.3
     1.026              -44.01          31.97          16.68          63.32         -10.28         0.3982         -48.78          79.17          177.6          39.69          156.1
     1.055              -43.91          31.94          16.73          63.33         -10.22         0.3106         -48.05          78.72          177.5          40.02          155.8
     1.084              -43.79          31.91          16.78          63.34         -10.15         0.2055         -47.18          78.18          177.4          40.41          155.5
